# xmcd CD database file
#
# Track frame offsets:
#	182
#	15880
#	27645
#	45397
#	65952
#	89617
#	105105
#	120505
#	140867
#	153810
#	178560
#
# Disc length: 2629 seconds
#
# Revision: 3
# Processed by: cddbd v1.4PL0 Copyright (c) Steve Scherf et al.
# Submitted via: CDex 1.40Beta9
#
DISCID=880a430b
DTITLE=Hubert Sumlin - "Healing Feeling"
DYEAR=1990
DGENRE=Blues
TTITLE0=I Don't Want To Hear About Your
TTITLE1=Healing Feeling
TTITLE2=Just Like I Treat You
TTITLE3=Come Back Little Girl
TTITLE4=Play It Cool
TTITLE5=Without A Friend Like You
TTITLE6=I Don't Want No Woman
TTITLE7=Blue Shadows
TTITLE8=Down The Dusty Road
TTITLE9=Honey Dumplins
TTITLE10=Blues For Henry
EXTD=YEAR: 1990 ID3G: 0
EXTT0=
EXTT1=
EXTT2=
EXTT3=
EXTT4=
EXTT5=
EXTT6=
EXTT7=
EXTT8=
EXTT9=
EXTT10=
PLAYORDER=
